<svg data-v-fde0c5aa="" xmlns="http://www.w3.org/2000/svg" viewBox="0 0 300 300" class="iconLeft"><!----><defs data-v-fde0c5aa=""><!----></defs><rect data-v-fde0c5aa="" fill="transparent" x="0" y="0" width="300px" height="300px" class="logo-background-square"></rect><defs data-v-fde0c5aa=""><!----></defs><g data-v-fde0c5aa="" id="ccbfb761-b848-427a-a20b-353ff7507da4" fill="#000000" transform="matrix(2.039460342246484,0,0,2.039460342246484,81.95510407452326,128.61625755300304)"><path d="M3.11 17.19L3.11 17.19L3.11 17.19Q2.41 17.19 1.95 16.85L1.95 16.85L1.95 16.85Q1.48 16.51 1.48 15.90L1.48 15.90L1.48 15.90Q1.48 14.29 4.77 13.79L4.77 13.79L4.77 13.79Q4.90 13.33 4.97 12.89L4.97 12.89L4.97 12.89Q4.33 13.29 3.61 13.29L3.61 13.29L3.61 13.29Q2.31 13.29 1.51 12.34L1.51 12.34L1.51 12.34Q0.71 11.40 0.71 9.88L0.71 9.88L0.71 9.88Q0.71 8.37 1.30 7.08L1.30 7.08L1.30 7.08Q1.89 5.80 2.99 4.96L2.99 4.96L2.99 4.96Q4.09 4.12 5.33 4.12L5.33 4.12L5.33 4.12Q6.57 4.12 7.36 4.73L7.36 4.73L7.36 4.73Q8.15 5.33 8.15 6.27L8.15 6.27L8.15 6.27Q8.15 6.83 7.95 7.18L7.95 7.18L7.95 7.18Q7.84 7.20 7.64 7.20L7.64 7.20L7.64 7.20Q6.57 7.20 6.02 6.85L6.02 6.85L6.03 5.33L6.03 5.33Q5.70 5.04 5.15 5.04L5.15 5.04L5.15 5.04Q4.30 5.04 3.64 6.35L3.64 6.35L3.64 6.35Q2.98 7.66 2.98 9.53L2.98 9.53L2.98 9.53Q2.98 10.78 3.39 11.37L3.39 11.37L3.39 11.37Q3.79 11.96 4.35 11.96L4.35 11.96L4.35 11.96Q5.19 11.96 5.87 11.12L5.87 11.12L5.87 11.12Q6.54 10.28 6.83 9.11L6.83 9.11L7.59 9.24L7.59 9.24Q7.06 13.24 5.98 15.22L5.98 15.22L5.98 15.22Q4.90 17.19 3.11 17.19ZM2.39 15.86L2.39 15.86L2.39 15.86Q2.39 16.25 3.05 16.25L3.05 16.25L3.05 16.25Q3.39 16.25 3.85 15.84L3.85 15.84L3.85 15.84Q4.31 15.43 4.55 14.77L4.55 14.77L4.55 14.77Q3.74 14.84 3.07 15.14L3.07 15.14L3.07 15.14Q2.39 15.44 2.39 15.86ZM9.44 14.22L9.44 14.22L9.44 14.22Q8.96 14.22 8.64 13.90L8.64 13.90L8.64 13.90Q8.33 13.58 8.33 13.00L8.33 13.00L8.33 13.00Q8.33 12.42 9.02 9.29L9.02 9.29L9.02 9.29Q9.72 6.16 9.72 4.77L9.72 4.77L9.63 4.16L9.63 4.16Q10.72 3.78 11.68 3.78L11.68 3.78L11.68 3.78Q11.82 3.98 11.82 4.47L11.82 4.47L11.82 4.47Q11.82 5.59 11.11 8.80L11.11 8.80L11.11 8.80Q10.40 12.01 10.40 12.54L10.40 12.54L10.40 12.54Q10.40 13.06 10.53 13.06L10.53 13.06L11.51 12.71L11.76 13.20L11.76 13.20Q11.28 13.58 10.61 13.90L10.61 13.90L10.61 13.90Q9.93 14.22 9.44 14.22ZM12.19 13.00L12.19 13.00L12.19 13.00Q12.19 12.40 12.56 10.96L12.56 10.96L12.56 10.96Q12.92 9.51 12.92 9.18L12.92 9.18L12.92 9.18Q12.92 8.85 12.42 8.30L12.42 8.30L12.43 8.12L12.43 8.12Q13.38 7.92 14.94 7.92L14.94 7.92L14.94 7.92Q15.01 8.11 15.01 8.58L15.01 8.58L15.01 8.58Q15.01 9.06 14.62 10.61L14.62 10.61L14.62 10.61Q14.22 12.17 14.22 12.54L14.22 12.54L14.22 12.54Q14.22 12.92 14.50 12.92L14.50 12.92L14.50 12.92Q14.91 12.92 15.44 12.63L15.44 12.63L15.44 12.63Q15.50 12.29 15.72 11.34L15.72 11.34L15.72 11.34Q16.23 9.10 16.23 8.13L16.23 8.13L16.23 8.13Q16.72 7.94 17.99 7.94L17.99 7.94L18.26 7.94L18.26 7.94Q18.26 8.60 17.86 10.51L17.86 10.51L17.86 10.51Q17.47 12.42 17.47 12.75L17.47 12.75L17.47 12.75Q17.47 13.08 17.61 13.08L17.61 13.08L17.61 13.08Q17.70 13.08 18.41 12.74L18.41 12.74L18.68 13.19L18.68 13.19Q17.43 14.22 16.49 14.22L16.49 14.22L16.49 14.22Q16.04 14.22 15.73 13.97L15.73 13.97L15.73 13.97Q15.41 13.72 15.37 13.31L15.37 13.31L15.37 13.31Q14.24 14.24 13.31 14.24L13.31 14.24L13.31 14.24Q12.82 14.24 12.51 13.92L12.51 13.92L12.51 13.92Q12.19 13.59 12.19 13.00ZM22.09 8.02L23.45 8.02L23.45 8.02Q23.42 8.37 23.21 8.83L23.21 8.83L23.21 8.83Q22.68 8.78 22.20 8.78L22.20 8.78L21.95 8.78L21.95 8.78Q21.31 11.90 21.31 12.67L21.31 12.67L21.31 12.67Q21.31 13.08 21.48 13.08L21.48 13.08L21.48 13.08Q21.66 13.08 22.41 12.73L22.41 12.73L22.67 13.19L22.67 13.19Q21.42 14.22 20.36 14.22L20.36 14.22L20.36 14.22Q19.87 14.22 19.55 13.92L19.55 13.92L19.55 13.92Q19.24 13.61 19.24 13.10L19.24 13.10L19.24 13.10Q19.24 12.59 19.36 11.94L19.36 11.94L19.36 11.94Q19.47 11.30 19.68 10.37L19.68 10.37L19.68 10.37Q19.89 9.44 19.99 8.86L19.99 8.86L19.99 8.86Q19.47 8.90 19.22 8.95L19.22 8.95L19.22 8.95Q19.19 8.78 19.19 8.49L19.19 8.49L19.19 8.49Q19.19 8.20 19.24 8.02L19.24 8.02L20.12 8.02L20.12 8.02Q20.23 7.27 20.23 6.59L20.23 6.59L20.22 6.16L20.22 6.12L20.22 6.12Q21.31 5.74 22.27 5.74L22.27 5.74L22.27 5.74Q22.33 6.02 22.33 6.44L22.33 6.44L22.33 6.44Q22.33 6.86 22.09 8.02L22.09 8.02ZM23.14 11.63L23.14 11.63L23.14 11.63Q23.14 9.88 24.20 8.87L24.20 8.87L24.20 8.87Q25.26 7.85 26.60 7.85L26.60 7.85L26.60 7.85Q27.43 7.85 27.96 8.26L27.96 8.26L27.96 8.26Q28.49 8.67 28.49 9.35L28.49 9.35L28.49 9.35Q28.49 10.02 28.15 10.49L28.15 10.49L28.15 10.49Q27.80 10.95 27.31 11.20L27.31 11.20L27.31 11.20Q26.32 11.69 25.49 11.82L25.49 11.82L25.16 11.86L25.16 11.86Q25.26 13.17 26.24 13.17L26.24 13.17L26.24 13.17Q26.57 13.17 26.95 13.01L26.95 13.01L26.95 13.01Q27.33 12.84 27.54 12.67L27.54 12.67L27.75 12.50L28.08 12.95L28.08 12.95Q27.97 13.10 27.64 13.36L27.64 13.36L27.64 13.36Q27.30 13.61 27.01 13.78L27.01 13.78L27.01 13.78Q26.19 14.22 25.23 14.22L25.23 14.22L25.23 14.22Q24.26 14.22 23.70 13.54L23.70 13.54L23.70 13.54Q23.14 12.85 23.14 11.63ZM25.14 11.17L25.14 11.17Q25.86 11.05 26.28 10.57L26.28 10.57L26.28 10.57Q26.70 10.09 26.70 9.34L26.70 9.34L26.70 9.34Q26.70 8.58 26.25 8.58L26.25 8.58L26.25 8.58Q25.72 8.58 25.43 9.49L25.43 9.49L25.43 9.49Q25.14 10.39 25.14 11.17L25.14 11.17ZM29.16 14.10L29.16 14.10L28.90 14.10L28.90 14.10Q28.90 13.44 29.29 11.58L29.29 11.58L29.29 11.58Q29.69 9.72 29.69 9.46L29.69 9.46L29.69 9.46Q29.69 9.00 29.30 8.48L29.30 8.48L29.18 8.32L29.19 8.13L29.19 8.13Q29.95 7.92 31.61 7.92L31.61 7.92L31.61 7.92Q31.79 8.16 31.81 8.79L31.81 8.79L31.81 8.79Q33.03 7.85 33.87 7.85L33.87 7.85L33.87 7.85Q34.37 7.85 34.67 8.20L34.67 8.20L34.67 8.20Q34.97 8.55 34.97 9.08L34.97 9.08L34.97 9.08Q34.97 9.60 34.65 10.89L34.65 10.89L34.65 10.89Q34.33 12.18 34.33 12.62L34.33 12.62L34.33 12.62Q34.33 13.06 34.44 13.06L34.44 13.06L34.44 13.06Q34.52 13.06 35.03 12.80L35.03 12.80L35.20 12.71L35.45 13.20L35.45 13.20Q35.32 13.31 35.11 13.48L35.11 13.48L35.11 13.48Q34.90 13.65 34.33 13.94L34.33 13.94L34.33 13.94Q33.77 14.22 33.32 14.22L33.32 14.22L33.32 14.22Q32.30 14.22 32.30 13.06L32.30 13.06L32.30 13.06Q32.30 12.57 32.61 11.26L32.61 11.26L32.61 11.26Q32.93 9.94 32.93 9.56L32.93 9.56L32.93 9.56Q32.93 9.18 32.69 9.18L32.69 9.18L32.69 9.18Q32.28 9.18 31.70 9.53L31.70 9.53L31.70 9.53Q31.65 9.77 31.42 10.79L31.42 10.79L31.42 10.79Q30.93 12.99 30.93 13.90L30.93 13.90L30.93 13.90Q30.44 14.10 29.16 14.10ZM41.57 4.19L41.57 4.19L44.31 4.27L45.75 4.24L45.75 4.24Q45.79 4.45 45.79 4.80L45.79 4.80L45.79 4.80Q45.79 5.15 45.69 5.31L45.69 5.31L45.69 5.31Q45.58 5.46 45.33 5.46L45.33 5.46L45.33 5.46Q45.08 5.46 44.26 5.39L44.26 5.39L44.26 5.39Q43.44 5.32 43.05 5.32L43.05 5.32L42.55 5.35L42.55 5.35Q42.49 5.88 41.87 8.75L41.87 8.75L41.87 8.75Q42.94 8.65 43.65 8.65L43.65 8.65L43.65 8.65Q44.37 8.65 44.76 8.76L44.76 8.76L44.76 8.76Q44.73 9.35 44.51 9.77L44.51 9.77L44.51 9.77Q43.90 9.65 43.08 9.65L43.08 9.65L43.08 9.65Q42.25 9.65 41.68 9.73L41.68 9.73L41.68 9.73Q41.16 12.26 41.16 13.58L41.16 13.58L41.16 13.82L41.16 13.82Q40.66 14.10 39.03 14.10L39.03 14.10L38.89 14.10L38.89 14.10Q38.89 13.15 39.54 10.14L39.54 10.14L39.54 10.14Q40.19 7.13 40.33 5.81L40.33 5.81L40.33 5.81Q40.33 5.59 40.19 5.27L40.19 5.27L40.19 5.27Q40.05 4.96 39.90 4.76L39.90 4.76L39.76 4.56L39.80 4.35L39.80 4.35Q40.56 4.20 41.57 4.19ZM45.71 14.10L45.71 14.10L45.61 14.10L45.61 14.10Q45.58 13.99 45.58 13.59L45.58 13.59L45.58 13.59Q45.58 13.19 45.96 11.44L45.96 11.44L45.96 11.44Q46.34 9.69 46.34 9.44L46.34 9.44L46.34 9.44Q46.34 9.00 45.95 8.48L45.95 8.48L45.82 8.32L45.84 8.13L45.84 8.13Q46.59 7.92 48.26 7.92L48.26 7.92L48.26 7.92Q48.43 8.29 48.43 8.95L48.43 8.95L48.43 8.95Q48.58 8.69 49.07 8.27L49.07 8.27L49.07 8.27Q49.56 7.85 50.08 7.85L50.08 7.85L50.08 7.85Q50.83 7.85 50.83 9.17L50.83 9.17L50.83 9.17Q50.76 9.25 50.64 9.39L50.64 9.39L50.64 9.39Q50.53 9.52 50.17 9.76L50.17 9.76L50.17 9.76Q49.81 10.00 49.48 10.05L49.48 10.05L49.48 10.05Q49.46 10.05 49.24 9.67L49.24 9.67L49.24 9.67Q49.01 9.30 48.90 9.30L48.90 9.30L48.90 9.30Q48.55 9.42 48.29 9.72L48.29 9.72L48.29 9.72Q47.64 12.61 47.64 13.47L47.64 13.47L47.64 13.47Q47.64 13.78 47.66 13.90L47.66 13.90L47.66 13.90Q47.17 14.10 45.71 14.10ZM50.47 11.63L50.47 11.63L50.47 11.63Q50.47 9.88 51.53 8.87L51.53 8.87L51.53 8.87Q52.58 7.85 53.93 7.85L53.93 7.85L53.93 7.85Q54.75 7.85 55.29 8.26L55.29 8.26L55.29 8.26Q55.82 8.67 55.82 9.35L55.82 9.35L55.82 9.35Q55.82 10.02 55.47 10.49L55.47 10.49L55.47 10.49Q55.13 10.95 54.64 11.20L54.64 11.20L54.64 11.20Q53.65 11.69 52.82 11.82L52.82 11.82L52.49 11.86L52.49 11.86Q52.58 13.17 53.56 13.17L53.56 13.17L53.56 13.17Q53.90 13.17 54.28 13.01L54.28 13.01L54.28 13.01Q54.66 12.84 54.87 12.67L54.87 12.67L55.08 12.50L55.41 12.95L55.41 12.95Q55.30 13.10 54.96 13.36L54.96 13.36L54.96 13.36Q54.63 13.61 54.33 13.78L54.33 13.78L54.33 13.78Q53.52 14.22 52.56 14.22L52.56 14.22L52.56 14.22Q51.59 14.22 51.03 13.54L51.03 13.54L51.03 13.54Q50.47 12.85 50.47 11.63ZM52.47 11.17L52.47 11.17Q53.19 11.05 53.61 10.57L53.61 10.57L53.61 10.57Q54.03 10.09 54.03 9.34L54.03 9.34L54.03 9.34Q54.03 8.58 53.58 8.58L53.58 8.58L53.58 8.58Q53.05 8.58 52.76 9.49L52.76 9.49L52.76 9.49Q52.47 10.39 52.47 11.17L52.47 11.17ZM56.06 11.63L56.06 11.63L56.06 11.63Q56.06 9.88 57.11 8.87L57.11 8.87L57.11 8.87Q58.17 7.85 59.51 7.85L59.51 7.85L59.51 7.85Q60.34 7.85 60.87 8.26L60.87 8.26L60.87 8.26Q61.40 8.67 61.40 9.35L61.40 9.35L61.40 9.35Q61.40 10.02 61.06 10.49L61.06 10.49L61.06 10.49Q60.72 10.95 60.23 11.20L60.23 11.20L60.23 11.20Q59.23 11.69 58.41 11.82L58.41 11.82L58.07 11.86L58.07 11.86Q58.17 13.17 59.15 13.17L59.15 13.17L59.15 13.17Q59.49 13.17 59.86 13.01L59.86 13.01L59.86 13.01Q60.24 12.84 60.45 12.67L60.45 12.67L60.66 12.50L61.00 12.95L61.00 12.95Q60.89 13.10 60.55 13.36L60.55 13.36L60.55 13.36Q60.21 13.61 59.92 13.78L59.92 13.78L59.92 13.78Q59.11 14.22 58.14 14.22L58.14 14.22L58.14 14.22Q57.18 14.22 56.62 13.54L56.62 13.54L56.62 13.54Q56.06 12.85 56.06 11.63ZM58.06 11.17L58.06 11.17Q58.77 11.05 59.19 10.57L59.19 10.57L59.19 10.57Q59.61 10.09 59.61 9.34L59.61 9.34L59.61 9.34Q59.61 8.58 59.16 8.58L59.16 8.58L59.16 8.58Q58.63 8.58 58.34 9.49L58.34 9.49L58.34 9.49Q58.06 10.39 58.06 11.17L58.06 11.17ZM70.80 13.38L70.80 13.38Q70.63 13.82 70.27 14.07L70.27 14.07L70.27 14.07Q69.92 14.32 69.43 14.32L69.43 14.32L69.43 14.32Q68.95 14.32 67.99 13.73L67.99 13.73L67.99 13.73Q67.03 13.15 66.46 12.98L66.46 12.98L66.46 12.98Q66.08 13.48 65.60 13.82L65.60 13.82L65.60 13.82Q65.13 14.15 64.95 14.15L64.95 14.15L64.95 14.15Q64.81 14.15 64.39 13.55L64.39 13.55L64.39 13.55Q63.97 12.94 63.97 12.67L63.97 12.67L63.97 12.67Q63.97 12.52 64.41 12.21L64.41 12.21L64.41 12.21Q64.85 11.90 65.34 11.79L65.34 11.79L65.34 11.79Q65.69 10.93 66.07 9.26L66.07 9.26L66.07 9.26Q66.44 7.59 66.65 5.81L66.65 5.81L66.65 5.81Q66.65 5.59 66.51 5.27L66.51 5.27L66.51 5.27Q66.36 4.96 66.21 4.76L66.21 4.76L66.07 4.56L66.11 4.35L66.11 4.35Q66.95 4.12 68.87 4.12L68.87 4.12L68.87 4.12Q69.05 4.42 69.05 5.05L69.05 5.05L69.05 5.05Q69.05 5.68 68.68 6.93L68.68 6.93L68.68 6.93Q68.32 8.18 67.68 9.92L67.68 9.92L67.68 9.92Q67.05 11.66 66.95 11.98L66.95 11.98L66.95 11.98Q67.00 12.00 67.30 12.08L67.30 12.08L67.30 12.08Q67.59 12.17 67.68 12.19L67.68 12.19L67.68 12.19Q67.77 12.21 68.04 12.27L68.04 12.27L68.04 12.27Q68.31 12.33 68.46 12.36L68.46 12.36L68.46 12.36Q68.61 12.38 68.87 12.40L68.87 12.40L68.87 12.40Q69.30 12.47 69.68 12.47L69.68 12.47L69.68 12.47Q70.07 12.47 70.24 12.28L70.24 12.28L70.63 11.55L71.09 11.66L71.09 11.66Q71.09 12.57 70.80 13.38L70.80 13.38ZM73.42 15.57L73.42 15.57L73.42 15.57Q72.95 15.85 72.95 16.11L72.95 16.11L72.95 16.11Q72.95 16.38 73.25 16.38L73.25 16.38L73.25 16.38Q73.56 16.38 73.93 16.09L73.93 16.09L73.93 16.09Q74.31 15.81 74.56 15.16L74.56 15.16L74.56 15.16Q73.89 15.29 73.42 15.57ZM72.74 14.11L72.74 14.11L72.74 14.11Q71.57 14.11 71.57 12.82L71.57 12.82L71.57 12.82Q71.57 12.52 71.85 11.05L71.85 11.05L71.85 11.05Q72.13 9.58 72.13 8.60L72.13 8.60L72.13 8.60Q72.13 8.39 72.07 8.20L72.07 8.20L72.07 8.20Q72.83 7.91 74.14 7.91L74.14 7.91L74.14 7.91Q74.21 8.11 74.21 8.58L74.21 8.58L74.21 8.58Q74.21 9.06 73.91 10.56L73.91 10.56L73.91 10.56Q73.60 12.05 73.60 12.49L73.60 12.49L73.60 12.49Q73.60 12.92 73.96 12.92L73.96 12.92L73.96 12.92Q74.40 12.92 75.01 12.49L75.01 12.49L75.01 12.49Q75.08 11.66 75.57 8.13L75.57 8.13L75.57 8.13Q76.06 7.94 77.34 7.94L77.34 7.94L77.60 7.94L77.60 7.94Q77.34 8.99 77.08 10.96L77.08 10.96L77.08 10.96Q76.83 12.94 76.68 13.71L76.68 13.71L76.68 13.71Q76.38 15.25 75.59 16.22L75.59 16.22L75.59 16.22Q74.80 17.19 73.53 17.19L73.53 17.19L73.53 17.19Q73.02 17.19 72.61 16.93L72.61 16.93L72.61 16.93Q72.20 16.66 72.20 16.24L72.20 16.24L72.20 16.24Q72.20 15.68 72.88 15.22L72.88 15.22L72.88 15.22Q73.57 14.76 74.73 14.50L74.73 14.50L74.73 14.50Q74.86 13.89 74.93 13.31L74.93 13.31L74.93 13.31Q73.79 14.11 72.74 14.11ZM80.70 8.02L82.00 8.02L82.00 8.02Q81.97 8.33 81.75 8.83L81.75 8.83L81.75 8.83Q81.21 8.78 80.70 8.78L80.70 8.78L80.64 8.78L80.64 8.78Q80.35 12.24 80.09 13.89L80.09 13.89L80.09 13.89Q79.84 15.54 79.44 16.20L79.44 16.20L79.44 16.20Q78.93 16.18 78.39 16.07L78.39 16.07L78.39 16.07Q77.85 15.95 77.66 15.82L77.66 15.82L77.66 15.82Q77.99 14.78 78.34 12.70L78.34 12.70L78.34 12.70Q78.68 10.61 78.78 8.85L78.78 8.85L78.78 8.85Q78.39 8.88 77.91 8.95L77.91 8.95L77.91 8.95Q77.87 8.76 77.87 8.58L77.87 8.58L77.87 8.58Q77.87 8.39 77.92 8.02L77.92 8.02L78.82 8.02L78.82 8.02Q78.85 6.80 78.95 6.17L78.95 6.17L78.95 6.17Q79.11 5.05 79.72 4.42L79.72 4.42L79.72 4.42Q80.33 3.78 81.30 3.78L81.30 3.78L81.30 3.78Q81.91 3.78 82.27 4.05L82.27 4.05L82.27 4.05Q82.63 4.33 82.63 4.91L82.63 4.91L82.63 4.91Q82.63 5.50 82.10 6.43L82.10 6.43L82.10 6.43Q81.56 7.36 80.70 8.02L80.70 8.02ZM80.72 7.14L80.72 7.14Q81.27 6.68 81.58 6.12L81.58 6.12L81.58 6.12Q81.89 5.56 81.89 5.10L81.89 5.10L81.89 5.10Q81.89 4.65 81.59 4.65L81.59 4.65L81.59 4.65Q80.98 4.65 80.81 6.06L80.81 6.06L80.81 6.06Q80.75 6.54 80.72 7.14L80.72 7.14ZM81.96 11.63L81.96 11.63L81.96 11.63Q81.96 9.88 83.01 8.87L83.01 8.87L83.01 8.87Q84.07 7.85 85.41 7.85L85.41 7.85L85.41 7.85Q86.24 7.85 86.77 8.26L86.77 8.26L86.77 8.26Q87.30 8.67 87.30 9.35L87.30 9.35L87.30 9.35Q87.30 10.02 86.96 10.49L86.96 10.49L86.96 10.49Q86.62 10.95 86.13 11.20L86.13 11.20L86.13 11.20Q85.13 11.69 84.31 11.82L84.31 11.82L83.97 11.86L83.97 11.86Q84.07 13.17 85.05 13.17L85.05 13.17L85.05 13.17Q85.39 13.17 85.76 13.01L85.76 13.01L85.76 13.01Q86.14 12.84 86.35 12.67L86.35 12.67L86.56 12.50L86.90 12.95L86.90 12.95Q86.79 13.10 86.45 13.36L86.45 13.36L86.45 13.36Q86.11 13.61 85.82 13.78L85.82 13.78L85.82 13.78Q85.01 14.22 84.04 14.22L84.04 14.22L84.04 14.22Q83.08 14.22 82.52 13.54L82.52 13.54L82.52 13.54Q81.96 12.85 81.96 11.63ZM83.96 11.17L83.96 11.17Q84.67 11.05 85.09 10.57L85.09 10.57L85.09 10.57Q85.51 10.09 85.51 9.34L85.51 9.34L85.51 9.34Q85.51 8.58 85.06 8.58L85.06 8.58L85.06 8.58Q84.53 8.58 84.24 9.49L84.24 9.49L84.24 9.49Q83.96 10.39 83.96 11.17L83.96 11.17Z"></path></g><defs data-v-fde0c5aa=""><linearGradient data-v-fde0c5aa="" gradientTransform="rotate(25)" id="fa0d7d71-2a03-4a5f-badc-85c22137598d" x1="0%" y1="0%" x2="100%" y2="0%"><stop data-v-fde0c5aa="" offset="0%" stop-color="#288B58" stop-opacity="1"></stop><stop data-v-fde0c5aa="" offset="100%" stop-color="#1522F1" stop-opacity="1"></stop></linearGradient></defs><g data-v-fde0c5aa="" id="6d6e920e-ffe4-4ecf-8aca-8e88d33425c2" stroke="none" fill="url(#fa0d7d71-2a03-4a5f-badc-85c22137598d)" transform="matrix(0.4102359387222448,0,0,0.4102359387222448,40,129.48812638251798)"><path d="M18.097 22.218c.693 2.759-.427 5.502-2.626 6.156-2.191.652-4.675-1.178-5.417-4.127-.892-2.995 1.478-13.728 1.478-13.728s5.758 9.042 6.565 11.699zM27.847 32.956c-.911 2.538-3.361 4.022-5.549 3.134-2.194-.88-3.237-3.848-2.239-6.453.935-2.694 8.533-9.238 8.533-9.238s.045 9.979-.745 12.557zM33.248 45.991c-.641 2.604-2.9 4.348-5.178 3.717-2.272-.628-3.631-3.466-2.909-6.156.65-2.776 7.544-10.049 7.544-10.049s1.048 9.867.543 12.488zM40.043 58.155c-.323 2.635-2.337 4.66-4.672 4.331-2.329-.327-4.034-2.971-3.624-5.723.313-2.836 6.376-10.787 6.376-10.787s2.093 9.543 1.92 12.179zM8.262 39.868c2.434 1.706 5.239 1.179 6.32-.987 1.073-2.169.091-5.155-2.224-6.862C10.035 30.422 0 27.798 0 27.798s5.732 10.471 8.262 12.07zM14.532 54.995c2.612 1.45 5.351.607 6.175-1.666.827-2.279-.473-5.142-2.956-6.604-2.478-1.347-12.733-2.944-12.733-2.944s6.8 9.882 9.514 11.214zM22.606 69.437c2.794 1.136 5.399-.057 5.923-2.423.525-2.375-1.125-5.052-3.763-6.222-2.622-1.038-13.017-1.526-13.017-1.526s7.961 9.181 10.857 10.171zM48.294 69.096c.031 2.639-1.629 4.927-3.992 4.97-2.342.03-4.406-2.345-4.378-5.11-.096-2.854 4.933-11.467 4.933-11.467s3.211 9.01 3.437 11.607zM32.708 82.821c2.942.75 5.357-.846 5.502-3.26.16-2.438-1.854-4.852-4.643-5.651-2.747-.65-13.156.148-13.156.148s9.234 8.221 12.297 8.763z"></path><path d="M72.775 99.921c-14.424-5.55-27.001-15.413-36.452-27.534C26.8 60.266 20.065 46.183 15.472 31.569c-.167-.541.092-1.099.58-1.247.487-.148 1.015.163 1.18.696 4.536 14.438 11.189 28.328 20.54 40.227 9.285 11.903 21.573 21.529 35.674 26.958.515.203.789.754.611 1.231-.18.478-.753.696-1.282.487z"></path><g><path d="M62.6 9.624c-.882 1.857-2.75 2.904-4.303 2.284-1.542-.613-2.121-2.816-1.156-4.854C58.027 4.886 64.407 0 64.407 0S63.331 7.775 62.6 9.624zM63.407 19.978c-1.613 1.032-3.698.857-4.591-.599-.922-1.459-.188-3.644 1.53-4.685 1.759-1.143 9.006-1.27 9.006-1.27s-4.406 5.415-5.945 6.554zM61.215 29.654c-1.422 1.271-3.508 1.442-4.626.153-1.145-1.286-.785-3.563.759-4.855 1.529-1.418 8.676-2.614 8.676-2.614s-3.485 5.938-4.809 7.316zM60.661 39.531c-1.203 1.492-3.207 2.006-4.543.921-1.323-1.079-1.373-3.383-.06-4.914 1.285-1.656 8.128-3.993 8.128-3.993s-2.448 6.396-3.525 7.986zM48.992 15.466c.659 2.127 2.528 3.018 4.108 2.198 1.557-.833 2.332-3.001 1.767-5.053-.613-1.955-5.025-8.168-5.025-8.168s-1.666 8.913-.85 11.023zM46.259 27.545c.996 2.001 2.986 2.572 4.411 1.503 1.403-1.079 1.808-3.345.938-5.284-.946-1.835-6.234-7.333-6.234-7.333s-.281 9.163.885 11.114zM45.561 39.939c1.304 1.807 3.385 2.038 4.594.748 1.224-1.297 1.22-3.598.045-5.367-1.226-1.648-7.353-6.22-7.353-6.22s1.24 9.119 2.714 10.839zM61.737 49.402c-.937 1.675-2.85 2.505-4.33 1.644-1.486-.854-1.904-3.12-.861-4.848.997-1.845 7.358-5.294 7.358-5.294s-1.356 6.744-2.167 8.498zM46.902 52.242c1.583 1.562 3.658 1.462 4.657-.006.993-1.473.621-3.744-.828-5.292-1.479-1.424-8.275-4.908-8.275-4.908s2.725 8.756 4.446 10.206z"></path><path d="M64.979 78.329c-6.371-9.34-10.425-20.146-11.957-31.316-1.539-11.178-.151-22.721 3.834-33.261.138-.393.55-.593.893-.46.348.135.497.546.362.931-8.123 20.736-4.498 45.102 7.961 63.33.232.328.185.762-.106.989-.294.228-.744.13-.987-.213z"></path></g></g><!----></svg>