<svg data-v-423bf9ae="" xmlns="http://www.w3.org/2000/svg" viewBox="0 0 44.46661690794155 60" class="icon"><!----><!----><!----><!----><g data-v-423bf9ae="" id="692ad251-c24e-41da-b51f-0adc73019d3b" transform="matrix(0.5999977569663931,0,0,0.5999977569663931,3.381434829918817e-7,3.552713678800501e-15)" stroke="none" fill="black"><path d="M18.097 22.218c.693 2.759-.427 5.502-2.626 6.156-2.191.652-4.675-1.178-5.417-4.127-.892-2.995 1.478-13.728 1.478-13.728s5.758 9.042 6.565 11.699zM27.847 32.956c-.911 2.538-3.361 4.022-5.549 3.134-2.194-.88-3.237-3.848-2.239-6.453.935-2.694 8.533-9.238 8.533-9.238s.045 9.979-.745 12.557zM33.248 45.991c-.641 2.604-2.9 4.348-5.178 3.717-2.272-.628-3.631-3.466-2.909-6.156.65-2.776 7.544-10.049 7.544-10.049s1.048 9.867.543 12.488zM40.043 58.155c-.323 2.635-2.337 4.66-4.672 4.331-2.329-.327-4.034-2.971-3.624-5.723.313-2.836 6.376-10.787 6.376-10.787s2.093 9.543 1.92 12.179zM8.262 39.868c2.434 1.706 5.239 1.179 6.32-.987 1.073-2.169.091-5.155-2.224-6.862C10.035 30.422 0 27.798 0 27.798s5.732 10.471 8.262 12.07zM14.532 54.995c2.612 1.45 5.351.607 6.175-1.666.827-2.279-.473-5.142-2.956-6.604-2.478-1.347-12.733-2.944-12.733-2.944s6.8 9.882 9.514 11.214zM22.606 69.437c2.794 1.136 5.399-.057 5.923-2.423.525-2.375-1.125-5.052-3.763-6.222-2.622-1.038-13.017-1.526-13.017-1.526s7.961 9.181 10.857 10.171zM48.294 69.096c.031 2.639-1.629 4.927-3.992 4.97-2.342.03-4.406-2.345-4.378-5.11-.096-2.854 4.933-11.467 4.933-11.467s3.211 9.01 3.437 11.607zM32.708 82.821c2.942.75 5.357-.846 5.502-3.26.16-2.438-1.854-4.852-4.643-5.651-2.747-.65-13.156.148-13.156.148s9.234 8.221 12.297 8.763z"></path><path d="M72.775 99.921c-14.424-5.55-27.001-15.413-36.452-27.534C26.8 60.266 20.065 46.183 15.472 31.569c-.167-.541.092-1.099.58-1.247.487-.148 1.015.163 1.18.696 4.536 14.438 11.189 28.328 20.54 40.227 9.285 11.903 21.573 21.529 35.674 26.958.515.203.789.754.611 1.231-.18.478-.753.696-1.282.487z"></path><g><path d="M62.6 9.624c-.882 1.857-2.75 2.904-4.303 2.284-1.542-.613-2.121-2.816-1.156-4.854C58.027 4.886 64.407 0 64.407 0S63.331 7.775 62.6 9.624zM63.407 19.978c-1.613 1.032-3.698.857-4.591-.599-.922-1.459-.188-3.644 1.53-4.685 1.759-1.143 9.006-1.27 9.006-1.27s-4.406 5.415-5.945 6.554zM61.215 29.654c-1.422 1.271-3.508 1.442-4.626.153-1.145-1.286-.785-3.563.759-4.855 1.529-1.418 8.676-2.614 8.676-2.614s-3.485 5.938-4.809 7.316zM60.661 39.531c-1.203 1.492-3.207 2.006-4.543.921-1.323-1.079-1.373-3.383-.06-4.914 1.285-1.656 8.128-3.993 8.128-3.993s-2.448 6.396-3.525 7.986zM48.992 15.466c.659 2.127 2.528 3.018 4.108 2.198 1.557-.833 2.332-3.001 1.767-5.053-.613-1.955-5.025-8.168-5.025-8.168s-1.666 8.913-.85 11.023zM46.259 27.545c.996 2.001 2.986 2.572 4.411 1.503 1.403-1.079 1.808-3.345.938-5.284-.946-1.835-6.234-7.333-6.234-7.333s-.281 9.163.885 11.114zM45.561 39.939c1.304 1.807 3.385 2.038 4.594.748 1.224-1.297 1.22-3.598.045-5.367-1.226-1.648-7.353-6.22-7.353-6.22s1.24 9.119 2.714 10.839zM61.737 49.402c-.937 1.675-2.85 2.505-4.33 1.644-1.486-.854-1.904-3.12-.861-4.848.997-1.845 7.358-5.294 7.358-5.294s-1.356 6.744-2.167 8.498zM46.902 52.242c1.583 1.562 3.658 1.462 4.657-.006.993-1.473.621-3.744-.828-5.292-1.479-1.424-8.275-4.908-8.275-4.908s2.725 8.756 4.446 10.206z"></path><path d="M64.979 78.329c-6.371-9.34-10.425-20.146-11.957-31.316-1.539-11.178-.151-22.721 3.834-33.261.138-.393.55-.593.893-.46.348.135.497.546.362.931-8.123 20.736-4.498 45.102 7.961 63.33.232.328.185.762-.106.989-.294.228-.744.13-.987-.213z"></path></g></g><!----></svg>